<?xml version="1.0" encoding="UTF-8" standalone="no"?>
<!DOCTYPE svg PUBLIC "-//W3C//DTD SVG 1.1//EN" "http://www.w3.org/Graphics/SVG/1.1/DTD/svg11.dtd">
<svg width="100%" height="100%" viewBox="0 0 310 282" version="1.1" xmlns="http://www.w3.org/2000/svg" xmlns:xlink="http://www.w3.org/1999/xlink" xml:space="preserve" xmlns:serif="http://www.serif.com/" style="fill-rule:evenodd;clip-rule:evenodd;stroke-linecap:round;stroke-linejoin:round;stroke-miterlimit:1.5;">
    <g transform="matrix(0.866224,0.499656,-0.499656,0.866224,127.992,-268.667)">
        <path d="M230.739,262.573C230.739,235.865 209.056,214.182 182.348,214.182C155.64,214.182 133.957,235.865 133.957,262.573L133.957,472.434C133.957,499.142 155.64,520.825 182.348,520.825C209.056,520.825 230.739,499.142 230.739,472.434L230.739,262.573Z" style="fill:rgb(212,105,21);stroke:white;stroke-width:3px;"/>
    </g>
    <g transform="matrix(0.866025,-0.5,0.5,0.866025,-134.079,-85.8953)">
        <path d="M230.739,262.573C230.739,235.865 209.056,214.182 182.348,214.182C155.64,214.182 133.957,235.865 133.957,262.573L133.957,472.434C133.957,499.142 155.64,520.825 182.348,520.825C209.056,520.825 230.739,499.142 230.739,472.434L230.739,262.573Z" style="fill:rgb(136,136,136);"/>
        <path d="M230.739,262.573C230.739,235.865 209.056,214.182 182.348,214.182C155.64,214.182 133.957,235.865 133.957,262.573L133.957,472.434C133.957,499.142 155.64,520.825 182.348,520.825C209.056,520.825 230.739,499.142 230.739,472.434L230.739,262.573Z" style="fill:none;"/>
        <path d="M230.739,262.573C230.739,235.865 209.056,214.182 182.348,214.182C155.64,214.182 133.957,235.865 133.957,262.573L133.957,472.434C133.957,499.142 155.64,520.825 182.348,520.825C209.056,520.825 230.739,499.142 230.739,472.434L230.739,262.573Z" style="fill:none;stroke:white;stroke-width:3px;stroke-linecap:butt;stroke-miterlimit:2;"/>
    </g>
    <g transform="matrix(-4.16334e-17,-1,0.531412,-2.21245e-17,29.1552,413.99)">
        <path d="M230.739,305.244C230.739,254.985 209.056,214.182 182.348,214.182C155.64,214.182 133.957,254.985 133.957,305.244L133.957,429.764C133.957,480.022 155.64,520.825 182.348,520.825C209.056,520.825 230.739,480.022 230.739,429.764L230.739,305.244Z" style="fill:rgb(24,41,94);stroke:white;stroke-width:3.75px;"/>
    </g>
</svg>
