<svg xmlns="http://www.w3.org/2000/svg" version="1.1" viewBox="-5.0 -10.0 110.0 135.0">
 <path d="m15.938 93.5h16.141c2.5977 0 4.9609-1.0625 6.6641-2.7695 1.7109-1.7109 2.7734-4.0742 2.7734-6.6719v-25.582h-25.582c-2.5977 0-4.9609 1.0625-6.6641 2.7695-1.7109 1.7109-2.7734 4.0742-2.7734 6.6719v16.141c0 2.5977 1.0625 4.957 2.7695 6.668 1.7109 1.7109 4.0703 2.7695 6.668 2.7695zm60.051-48.98c-5.6602 0-10.785-2.2969-14.496-6.0078-3.7148-3.7188-6.0117-8.8438-6.0117-14.5 0-5.6641 2.2969-10.793 6.0078-14.5 3.7109-3.7109 8.8398-6.0078 14.5-6.0078 5.6562 0 10.781 2.2969 14.496 6.0078l0.007813 0.007812c3.707 3.7148 6.0039 8.8398 6.0039 14.492 0 5.6641-2.2969 10.789-6.0078 14.5-3.7109 3.7109-8.8398 6.0078-14.5 6.0078zm-12.383-8.125c3.168 3.1641 7.5469 5.125 12.383 5.125 4.8359 0 9.2109-1.9609 12.379-5.1289 3.168-3.168 5.1289-7.5469 5.1289-12.379 0-4.8359-1.957-9.2188-5.1211-12.379-3.168-3.1719-7.5469-5.1289-12.387-5.1289-4.8359 0-9.2109 1.9609-12.379 5.1289-3.168 3.168-5.1289 7.5469-5.1289 12.379 0 4.8359 1.9609 9.2148 5.125 12.383zm4.3125 57.109h16.141c2.5938 0 4.9531-1.0625 6.6641-2.7734 1.7109-1.7109 2.7734-4.0703 2.7734-6.6641v-16.141c0-2.5938-1.0625-4.9531-2.7734-6.6641l-0.070312-0.074219c-1.6992-1.6641-4.0312-2.6992-6.5938-2.6992h-25.582v25.582c0 2.5977 1.0625 4.957 2.7695 6.668 1.7109 1.7109 4.0703 2.7695 6.668 2.7695zm16.141 3h-16.141c-3.418 0-6.5273-1.3984-8.7812-3.6523-2.2578-2.2578-3.6562-5.3711-3.6562-8.7891v-27.082c0-0.82812 0.67188-1.5 1.5-1.5h27.082c3.375 0 6.4492 1.3672 8.6953 3.5703l0.089844 0.082031c2.2539 2.2539 3.6523 5.3633 3.6523 8.7852v16.141c0 3.4219-1.3984 6.5352-3.6523 8.7852-2.2539 2.2539-5.3633 3.6523-8.7852 3.6523zm-39.543-78.23c0 0.82812-0.67188 1.5-1.5 1.5s-1.5-0.67188-1.5-1.5v-2.332c0-2.5977-1.0625-4.957-2.7695-6.6641-1.7148-1.7109-4.0781-2.7734-6.6719-2.7734h-16.141c-2.5938 0-4.9531 1.0625-6.6641 2.7734-1.7109 1.7109-2.7734 4.0703-2.7734 6.6641v16.141c0 2.5977 1.0625 4.957 2.7695 6.668 1.7109 1.7109 4.0742 2.7695 6.668 2.7695h25.582v-11.77c0-0.82812 0.67188-1.5 1.5-1.5s1.5 0.67188 1.5 1.5v13.27c0 0.82812-0.67188 1.5-1.5 1.5h-27.082c-3.418 0-6.5273-1.3984-8.7812-3.6523-2.2578-2.2578-3.6562-5.3672-3.6562-8.7852v-16.141c0-3.4219 1.3984-6.5312 3.6523-8.7852 2.2539-2.2539 5.3633-3.6523 8.7852-3.6523h16.141c3.4219 0 6.5312 1.3984 8.7852 3.6523 2.2539 2.2578 3.6523 5.3672 3.6523 8.7852v2.332zm0 5.9688c0 0.82812-0.67188 1.5-1.5 1.5s-1.5-0.67188-1.5-1.5v-0.46484c0-0.82812 0.67188-1.5 1.5-1.5s1.5 0.67188 1.5 1.5zm-12.441 72.258h-16.141c-3.418 0-6.5273-1.3984-8.7812-3.6523-2.2578-2.2578-3.6562-5.3672-3.6562-8.7891v-16.141c0-3.4141 1.3984-6.5195 3.6484-8.7773l0.007813-0.007813c2.2578-2.2539 5.3672-3.6523 8.7812-3.6523h27.082c0.82812 0 1.5 0.67188 1.5 1.5v27.082c0 3.4141-1.3984 6.5195-3.6484 8.7773l-0.007813 0.007812c-2.2578 2.2539-5.3672 3.6523-8.7812 3.6523z"/>
<text x="0.0" y="117.5" font-size="5.0" font-weight="bold" font-family="Arbeit Regular, Helvetica, Arial-Unicode, Arial, Sans-serif" fill="#000000">Created by Kartika Sholehatin</text><text x="0.0" y="122.5" font-size="5.0" font-weight="bold" font-family="Arbeit Regular, Helvetica, Arial-Unicode, Arial, Sans-serif" fill="#000000">from Noun Project</text></svg>