<?xml version="1.0" encoding="UTF-8"?>
<svg width="1200pt" height="1200pt" version="1.1" viewBox="0 0 1200 1200" xmlns="http://www.w3.org/2000/svg">
 <path d="m969 258.74h-93.562v-29.25c0-45.844-37.219-83.062-83.062-83.062-45.844 0.09375-82.969 37.219-83.062 83.062v29.25h-187.87v-25.219c0.79688-44.531-32.578-82.219-76.828-86.859-27.094-2.0625-53.484 9.2812-70.594 30.375-12.516 15.984-19.125 35.766-18.703 56.016v25.688h-93.562c-10.359 0-18.75 8.3906-18.75 18.75v79.875h-12.609c-39.188-0.65625-73.828 25.453-83.859 63.375-6.8438 28.172 1.5 57.891 22.031 78.375 3.9844 3.9375 8.3906 7.5 13.125 10.5l0.09375 0.046874c-51.469 33.328-88.594 84.75-103.92 144.1-2.8594 12.844-3.6094 26.062-2.25 39.188l29.344 346.82 37.359-3.1875-29.391-346.82c-0.9375-9.0938-0.46875-18.328 1.4062-27.281 13.594-50.484 45.516-94.125 89.484-122.39l-9.3281-16.266-5.8125-10.172c11.109 6.4688 23.766 9.8438 36.609 9.8438h17.719v79.875c0 4.9688 1.9688 9.75 5.4844 13.266s8.2969 5.4844 13.266 5.4844h69.375l21.562-37.5h-72.188v-79.875c0-4.9688-1.9688-9.75-5.4844-13.266s-8.2969-5.4844-13.266-5.4844h-34.5c-15.422-0.14062-29.766-8.0625-38.109-21.047s-9.6094-29.297-3.3281-43.406c8.0625-16.641 25.078-27.047 43.547-26.672h32.391c10.359-0.046875 18.703-8.3906 18.75-18.75v-79.875h93.562c4.9688 0 9.75-1.9688 13.266-5.4844s5.4844-8.2969 5.4844-13.266v-48c0.046875-14.578 7.0781-28.219 18.844-36.797s26.906-11.016 40.781-6.6094c19.219 6.6094 31.922 24.891 31.5 45.188v41.156c0 15.375 8.4375 23.812 18.75 23.812h93.75v61.125h-15.188c-45.844 0-83.062 37.219-83.062 83.062-0.046875 4.6406 0.42188 9.3281 1.3125 13.875 1.6406 0.09375 3.2812 0.28125 4.875 0.5625 13.828 1.0312 27.328 4.9219 39.562 11.438 6.3281 6.8906 13.828 12.609 22.125 16.875v0.1875c10.875 11.203 18.609 25.031 22.5 40.125l3.375 17.344c2.4375 12.281 2.5312 24.938 0.28125 37.266-1.5469 8.625-3.1875 17.391-3.6562 19.641-1.0781 5.25-3.0469 10.219-5.8125 14.812l-5.625 9.5625h45.75l-0.75-1.3125-4.875-8.25c-2.7656-4.6406-4.7344-9.7031-5.8594-15-9.1406-45.656-3.7031-81.422 16.172-106.88-0.5625-0.65625-1.2656-1.1719-2.0625-1.5-0.89062-0.75-1.9219-1.3125-3-1.6875-0.79688-0.42188-1.6875-0.70312-2.625-0.75-1.5-0.51562-3.0938-0.79688-4.6875-0.75h-29.062c-8.625 0-17.109-2.4844-24.375-7.125-0.5625-0.5625-8.0625-6.5625-8.25-6.5625-9.3281-9.5625-13.969-22.734-12.75-36 3-24.047 23.672-41.953 47.906-41.438h26.906c2.3906-0.046875 4.7344-0.51562 6.9375-1.5 7.125-2.7188 11.859-9.6094 11.812-17.25v-79.875h93.75c10.359-0.046875 18.703-8.3906 18.75-18.75v-48c-0.046875-13.078 5.5781-25.547 15.422-34.219 9.7969-8.6719 22.875-12.656 35.859-11.016 23.25 3.6094 40.312 23.859 39.844 47.438v45.797c0 4.9688 1.9688 9.75 5.4844 13.266s8.2969 5.4844 13.266 5.4844h93.562v61.125h-6.5156c-43.641-0.75-80.859 31.406-86.438 74.672-2.3438 23.344 5.2969 46.594 21.047 64.031s38.109 27.375 61.594 27.422h10.312v61.125h-102.94l21.562 37.5h100.12c4.9688 0 9.75-1.9688 13.266-5.4844s5.4844-8.2969 5.4844-13.266v-98.625c0-4.9688-1.9688-9.75-5.4844-13.266s-8.2969-5.4844-13.266-5.4844h-26.391c-24 0.51562-44.625-17.016-48-40.781-1.3125-12.844 2.8594-25.641 11.484-35.25s20.953-15.094 33.844-15.094h29.062c4.9688 0 9.75-1.9688 13.266-5.4844s5.4844-8.2969 5.4844-13.266v-98.625c0-4.9688-1.9688-9.75-5.4844-13.266s-8.2969-5.4844-13.266-5.4844z"/>
 <path d="m910.31 633.56-19.875 83.062-54-94.5-21.375-37.5-48.938-85.5c-2.1562-3.8438-5.625-6.75-9.75-8.25-6.375-2.4375-63.188-21.938-97.875 7.6875-20.25 17.438-27.375 46.5-20.812 86.062 0.375 2.4375 0.75 5.0625 1.3125 7.5 0.51562 2.1094 1.3594 4.125 2.4375 6l14.25 24 49.312 83.25c-10.125 40.688-47.062 219.74 67.5 291.37v56.812h37.5v-67.688c0-6.9844-3.7969-13.359-9.9375-16.688-112.88-59.812-57.375-259.5-56.812-261.56 1.4531-4.9688 0.79688-10.359-1.875-14.812l-66.188-111c-3.5625-19.688-4.6875-44.062 7.6875-54.75 13.125-11.25 39.938-6.9375 54.375-3l144.19 252.37c3.75 6.7031 11.344 10.406 18.938 9.1875 7.6406-0.9375 13.875-6.5625 15.562-14.062l30.75-129.37-36.375-8.8125z"/>
 <path d="m556.31 517.87c-3.5625-7.4062-8.625-13.969-14.812-19.312-7.2656-6.1406-15.75-10.594-24.938-13.125-1.875-0.5625-3.9375-0.9375-5.8125-1.3125-22.594-3.4688-45.703-1.1719-67.125 6.75-4.125 1.5-7.5938 4.4062-9.75 8.25l-124.31 217.5-19.875-83.062v-0.1875l-36.375 8.8125 30.75 129.37c1.6875 7.5 7.9219 13.125 15.562 14.062 7.5938 1.2188 15.188-2.4844 18.938-9.1875l144.19-252.37c14.438-3.9375 41.25-8.25 54.375 3 12.375 10.688 11.25 35.062 7.6875 54.75l-66.188 111c-2.6719 4.4531-3.3281 9.8438-1.875 14.812 0.5625 2.0625 56.062 201.74-56.812 261.56-6.1406 3.3281-9.9375 9.7031-9.9375 16.688v67.688h37.5v-56.812c114.56-71.625 77.625-250.69 67.5-291.37l63.562-107.25c1.0781-1.875 1.9219-3.8906 2.4375-6 0.5625-2.4375 0.9375-5.0625 1.3125-7.5 4.7344-21.656 3-44.203-5.0625-64.875z"/>
 <path d="m1122.1 653.76c-15.75-60.656-54.141-113.02-107.34-146.21l-18.656 32.531h0.046875c43.969 28.266 75.891 71.906 89.484 122.39 1.875 8.9531 2.3438 18.188 1.4062 27.281l-29.391 346.82 37.359 3.1875 29.391-346.82c1.3125-13.125 0.5625-26.344-2.2969-39.188z"/>
</svg>
