<?xml version="1.0" encoding="UTF-8"?>
<svg width="1200pt" height="1200pt" version="1.1" viewBox="0 0 1200 1200" xmlns="http://www.w3.org/2000/svg">
 <path d="m473.58 832.78c-26.672-21.516-45-51.703-51.844-85.312l-24.516 91.734c7.5-4.1719 15.938-6.375 24.562-6.375zm-170.16-608.58c37.781 8.3438 63.234 43.781 59.016 82.219-4.1719 38.484-36.656 67.594-75.328 67.594-38.719 0-71.203-29.109-75.375-67.594-4.2188-38.438 21.234-73.875 59.016-82.219v-45.609c-0.046875-5.4844 2.6719-10.641 7.2656-13.688l17.812-11.859c-14.953-9.3281-21.984-27.375-17.25-44.391 4.7812-16.969 20.156-28.781 37.781-28.969l405.84-6.4219c3.6562-0.09375 7.2656 0.28125 10.828 1.1719 3.5156 0.98438 6.8906 2.3906 10.078 4.2656l356.21 210.94c15.328 9.0469 22.781 27.141 18.281 44.297-4.5 17.203-19.875 29.297-37.688 29.672l-151.31 3.375 4.5 197.58h0.046875c0.046875 0.9375 0.046875 1.9219 0 2.9062-0.14062 1.4062-0.42188 2.8125-0.89062 4.1719h156.66c27.938 0.046875 50.578 22.688 50.625 50.625v10.406c-0.046875 22.266-14.625 41.906-35.906 48.422-7.875 11.484-12.281 25.031-12.609 39 0.46875 12.984 4.8281 25.5 12.516 36 21.375 6.4688 35.953 26.109 36 48.422v10.453c0 27.938-22.641 50.578-50.578 50.625h-51.844c4.0312 3.2344 7.875 6.75 11.578 10.406 41.953 42 54.516 105.19 31.828 160.08-22.734 54.844-76.266 90.656-135.66 90.703h-523.13c-27.938 0-50.578-22.641-50.625-50.578v-10.453c0.046875-22.266 14.625-41.906 35.906-48.422 7.875-11.484 12.281-25.031 12.609-38.953-0.46875-12.984-4.8281-25.547-12.516-36-13.359-4.0781-24.422-13.406-30.656-25.828l-27.141 101.3c-10.078 37.594-34.734 69.656-68.531 89.062l-0.98438 0.51562c-51.469 29.109-115.41 24.562-162.19-11.625-46.828-36.188-67.359-96.891-52.125-154.03l135.37-505.31c7.3125-26.906 34.969-42.938 61.922-35.766l9.2344 2.4844c0.65625 0.14062 1.3125 0.32812 1.9219 0.51562 12.516 3.6562 23.156 11.953 29.672 23.25 0.1875 0.375 0.42188 0.75 0.60938 1.125h-0.046875c3.7969 6.9375 5.9062 14.625 6.1875 22.453 9.0469 10.594 21 18.328 34.359 22.266 12.656 2.9531 25.922 1.9688 38.062-2.7656 3.5156-5.6719 8.1562-10.594 13.641-14.484-18.469-7.875-36.703-15.984-54.656-24.422-0.9375-0.32812-1.8281-0.79688-2.6719-1.3125-3.7031-2.2031-6.375-5.8125-7.4062-10.031-1.0781-4.2188-0.375-8.6719 1.875-12.375l102.19-169.36-109.03-66.234-23.25 15.469v36.891zm14.156 43.547h0.046875c-14.578-14.578-37.453-16.828-54.562-5.3906-17.156 11.438-23.812 33.422-15.938 52.453s28.125 29.859 48.328 25.828c20.25-4.0312 34.781-21.75 34.781-42.375 0-11.438-4.5469-22.406-12.609-30.516zm15.703-129.98h0.046875c0.9375 0.46875 1.8281 0.98438 2.6719 1.6406l129.37 78.609c0.375 0.1875 0.75 0.375 1.125 0.60938s0.79687 0.46875 1.2188 0.75l197.06 119.77c0.60937 0.375 1.2188 0.65625 1.9219 0.79688 0.65625 0.1875 1.3594 0.28125 2.0625 0.23438l410.48-9.1406c3.1875 0 6-2.2031 6.8438-5.2969 0.79687-3.1406-0.60938-6.4219-3.4219-7.9688l-356.26-210.89c-1.125-0.70312-2.4375-1.0781-3.75-1.0312l-405.79 6.4219v0.046875c-3.1875 0-6 2.1562-6.75 5.2969-0.42188 1.5-0.375 3.0938 0.1875 4.5469s1.5938 2.625 2.9531 3.4219l20.062 12.188zm130.31 117.23-92.719 153.71c79.172 36.188 161.16 65.953 245.16 88.922 93 25.219 188.11 42.188 284.16 50.766l-4.125-180.66-226.64 5.0625v-0.046875c-7.5469 0.28125-15-1.7344-21.422-5.7656l-184.36-111.98zm352.78 316.64h0.046875c-70.5-9.6562-140.29-23.906-208.97-42.609-41.906-11.438-82.5-24.234-121.82-38.391 1.2656 6.9375 1.0312 14.062-0.65625 20.906-0.14063 0.60938-0.28125 1.2656-0.51563 1.875l-29.062 108.42c2.1094-2.3906 4.3125-4.7344 6.5625-6.9844h0.046876c27.469-27.609 64.828-43.125 103.78-43.125zm-589.74 369.1 11.016-41.062v-0.046875c1.3594-4.875-1.5469-9.9375-6.4688-11.25-4.875-1.3125-9.9375 1.5469-11.25 6.4688l-11.016 41.156c-0.65625 2.3438-0.375 4.875 0.84375 7.0312 1.2188 2.1094 3.2344 3.7031 5.625 4.3125 2.3906 0.65625 4.875 0.28125 7.0312-0.9375 2.1094-1.2656 3.6094-3.2812 4.2188-5.6719zm23.766-88.594 50.484-188.53c1.3125-4.9219-1.5938-9.9375-6.4688-11.25-4.9219-1.3125-9.9375 1.5938-11.25 6.5156l-50.531 188.48c-0.60938 2.3438-0.28125 4.875 0.9375 6.9844 1.1719 2.1094 3.1875 3.6562 5.5312 4.3125 4.9219 1.3125 9.9844-1.5938 11.297-6.4688zm120.37-345.79c-11.391 1.5469-22.969 0.89063-34.125-1.9688-12.328-3.2344-23.859-8.9531-33.938-16.781l-129.42 483.05c-4.9219 18.797 6.1875 38.062 24.938 43.172 9.0469 2.4375 18.656 1.125 26.719-3.5625l0.75-0.42187h0.046875c7.7344-4.6875 13.406-12.188 15.75-20.953zm-53.062 503.06 0.046875-0.046874c-7.875 29.297-27.047 54.188-53.344 69.281l-0.75 0.46875c-40.031 22.688-89.766 19.125-126.19-9.0469-36.375-28.172-52.359-75.422-40.453-119.86l135.37-505.31c2.625-9.5625 12.422-15.188 21.984-12.656l10.078 2.7188c4.6406 1.2188 8.5312 4.2656 10.875 8.3906l0.375 0.60938v-0.046875c2.1094 4.0312 2.5781 8.6719 1.4062 13.031l-135.37 505.26c-7.1719 26.531 2.3906 54.797 24.234 71.484 21.797 16.734 51.562 18.656 75.328 4.8281 0.32813-0.1875 0.65625-0.42188 0.98438-0.60938 15.141-9 26.156-23.578 30.75-40.547l135.37-505.36c2.625-9.5156 12.422-15.188 21.984-12.656 3.3281 0.84375 6.75 1.9219 10.078 2.7188 9.5156 2.5781 15.188 12.422 12.656 21.984l-135.37 505.31zm127.03 5.7188 500.11-0.046874c19.219-0.375 34.641-16.078 34.641-35.297s-15.422-34.922-34.641-35.297h-499.64c4.4062 10.641 6.7969 22.031 6.9375 33.562 0.046875 12.703-2.4844 25.312-7.4062 37.031zm522.24-218.34 29.016-13.641v-99.844h-29.016zm51.234 11.859-51 24.141h121.69c9.8906-0.046875 17.859-8.0156 17.906-17.906v-10.406c-0.046875-9.8906-8.0156-17.859-17.906-17.906h-60.234v6.8906c-0.046875 6.75-4.1719 12.797-10.453 15.234zm-6-158.11h-446.39v0.046876c-37.219 0.51562-67.078 30.797-67.078 67.969 0 37.219 29.859 67.5 67.078 68.016h368.48v36c-0.046875 3.7031 1.2656 7.3125 3.5625 10.219h-372.1c-63.094 0-114.23-51.141-114.23-114.23s51.141-114.23 114.23-114.23h523.13c9.8906 0.046876 17.859 8.0625 17.906 17.906v10.453c-0.046875 9.8438-8.0156 17.859-17.906 17.906h-76.641zm16.406 32.719v70.594h36.75c-4.4531-10.641-6.7969-22.031-6.9844-33.516-0.046875-12.75 2.4844-25.312 7.4062-37.031zm-94.359 70.594v-70.547h-368.48c-19.219 0.375-34.641 16.078-34.641 35.297 0 19.266 15.422 34.922 34.641 35.297zm-59.391 216.74h-42.516c-4.9688 0.1875-8.8594 4.2188-8.8594 9.1875s3.8906 9 8.8594 9.1875h42.516c2.4844 0.09375 4.9219-0.84375 6.75-2.5781 1.7812-1.7344 2.8125-4.125 2.8125-6.6094s-1.0312-4.875-2.8125-6.6094c-1.8281-1.7344-4.2656-2.6719-6.75-2.5781zm-91.734 0h-195.14c-4.9688 0.1875-8.8594 4.2188-8.8594 9.1875s3.8906 9 8.8594 9.1875h195.14c2.5312 0.09375 4.9219-0.84375 6.75-2.5781 1.7812-1.7344 2.8125-4.125 2.8125-6.6094s-1.0312-4.875-2.8125-6.6094c-1.8281-1.7344-4.2188-2.6719-6.75-2.5781zm161.68-105.05h-523.08c-9.8906 0.046875-17.859 8.0156-17.906 17.906v10.406c0.046875 9.8906 8.0156 17.906 17.906 17.953h523.13c37.172 0.46875 67.078 30.75 67.078 67.969s-29.906 67.5-67.078 67.969h-523.13c-9.8906 0.09375-17.859 8.0625-17.906 17.906v10.453c0.046875 9.8906 8.0156 17.859 17.906 17.906h523.13c63.094 0 114.23-51.141 114.23-114.23s-51.141-114.23-114.23-114.23zm-360.66-137.76h42.562c4.9219-0.14062 8.8594-4.2188 8.8594-9.1875s-3.9375-9-8.8594-9.1875h-42.562c-4.9688 0.1875-8.8594 4.2188-8.8594 9.1875s3.8906 9.0469 8.8594 9.1875zm91.734 0h195.14c2.5312 0.09375 4.9219-0.79688 6.75-2.5312 1.7812-1.7812 2.8125-4.1719 2.8125-6.6562s-1.0312-4.875-2.8125-6.6094c-1.8281-1.7344-4.2188-2.6719-6.75-2.5781h-195.14c-4.9688 0.1875-8.8594 4.2188-8.8594 9.1875s3.8906 9.0469 8.8594 9.1875z" fill-rule="evenodd"/>
</svg>
