<?xml version="1.0" encoding="UTF-8"?>
<svg width="1200pt" height="1200pt" version="1.1" viewBox="0 0 1200 1200" xmlns="http://www.w3.org/2000/svg">
 <path d="m191.26 1122h193.69c31.172 0 59.531-12.75 79.969-33.234 20.531-20.531 33.281-48.891 33.281-80.062v-306.98h-306.98c-31.172 0-59.531 12.75-79.969 33.234-20.531 20.531-33.281 48.891-33.281 80.062v193.69c0 31.172 12.75 59.484 33.234 80.016 20.531 20.531 48.844 33.234 80.016 33.234zm720.61-587.76c-67.922 0-129.42-27.562-173.95-72.094-44.578-44.625-72.141-106.12-72.141-174 0-67.969 27.562-129.52 72.094-174 44.531-44.531 106.08-72.094 174-72.094 67.875 0 129.37 27.562 173.95 72.094l0.09375 0.09375c44.484 44.578 72.047 106.08 72.047 173.9 0 67.969-27.562 129.47-72.094 174s-106.08 72.094-174 72.094zm-148.6-97.5c38.016 37.969 90.562 61.5 148.6 61.5 58.031 0 110.53-23.531 148.55-61.547s61.547-90.562 61.547-148.55c0-58.031-23.484-110.62-61.453-148.55-38.016-38.062-90.562-61.547-148.64-61.547-58.031 0-110.53 23.531-148.55 61.547-38.016 38.016-61.547 90.562-61.547 148.55 0 58.031 23.531 110.58 61.5 148.6zm51.75 685.31h193.69c31.125 0 59.438-12.75 79.969-33.281s33.281-48.844 33.281-79.969v-193.69c0-31.125-12.75-59.438-33.281-79.969l-0.84375-0.89062c-20.391-19.969-48.375-32.391-79.125-32.391h-306.98v306.98c0 31.172 12.75 59.484 33.234 80.016 20.531 20.531 48.844 33.234 80.016 33.234zm193.69 36h-193.69c-41.016 0-78.328-16.781-105.38-43.828-27.094-27.094-43.875-64.453-43.875-105.47v-324.98c0-9.9375 8.0625-18 18-18h324.98c40.5 0 77.391 16.406 104.34 42.844l1.0781 0.98438c27.047 27.047 43.828 64.359 43.828 105.42v193.69c0 41.062-16.781 78.422-43.828 105.42-27.047 27.047-64.359 43.828-105.42 43.828zm-474.52-938.76c0 9.9375-8.0625 18-18 18s-18-8.0625-18-18v-27.984c0-31.172-12.75-59.484-33.234-79.969-20.578-20.531-48.938-33.281-80.062-33.281h-193.69c-31.125 0-59.438 12.75-79.969 33.281s-33.281 48.844-33.281 79.969v193.69c0 31.172 12.75 59.484 33.234 80.016 20.531 20.531 48.891 33.234 80.016 33.234h306.98v-141.24c0-9.9375 8.0625-18 18-18s18 8.0625 18 18v159.24c0 9.9375-8.0625 18-18 18h-324.98c-41.016 0-78.328-16.781-105.38-43.828-27.094-27.094-43.875-64.406-43.875-105.42v-193.69c0-41.062 16.781-78.375 43.828-105.42 27.047-27.047 64.359-43.828 105.42-43.828h193.69c41.062 0 78.375 16.781 105.42 43.828 27.047 27.094 43.828 64.406 43.828 105.42v27.984zm0 71.625c0 9.9375-8.0625 18-18 18s-18-8.0625-18-18v-5.5781c0-9.9375 8.0625-18 18-18s18 8.0625 18 18zm-149.29 867.1h-193.69c-41.016 0-78.328-16.781-105.38-43.828-27.094-27.094-43.875-64.406-43.875-105.47v-193.69c0-40.969 16.781-78.234 43.781-105.33l0.09375-0.09375c27.094-27.047 64.406-43.828 105.38-43.828h324.98c9.9375 0 18 8.0625 18 18v324.98c0 40.969-16.781 78.234-43.781 105.33l-0.09375 0.09375c-27.094 27.047-64.406 43.828-105.38 43.828z"/>
</svg>
