<svg xmlns="http://www.w3.org/2000/svg" version="1.1" viewBox="-5.0 -10.0 110.0 135.0">
 <path d="m80.75 21.562h-7.7969v-2.4375c0-3.8203-3.1016-6.9219-6.9219-6.9219-3.8203 0.007813-6.9141 3.1016-6.9219 6.9219v2.4375h-15.656v-2.1016c0.066406-3.7109-2.7148-6.8516-6.4023-7.2383-2.2578-0.17188-4.457 0.77344-5.8828 2.5312-1.043 1.332-1.5938 2.9805-1.5586 4.668v2.1406h-7.7969c-0.86328 0-1.5625 0.69922-1.5625 1.5625v6.6562h-1.0508c-3.2656-0.054688-6.1523 2.1211-6.9883 5.2812-0.57031 2.3477 0.125 4.8242 1.8359 6.5312 0.33203 0.32812 0.69922 0.625 1.0938 0.875l0.007813 0.003906c-4.2891 2.7773-7.3828 7.0625-8.6602 12.008-0.23828 1.0703-0.30078 2.1719-0.1875 3.2656l2.4453 28.902 3.1133-0.26563-2.4492-28.902c-0.078125-0.75781-0.039062-1.5273 0.11719-2.2734 1.1328-4.207 3.793-7.8438 7.457-10.199l-0.77734-1.3555-0.48438-0.84766c0.92578 0.53906 1.9805 0.82031 3.0508 0.82031h1.4766v6.6562c0 0.41406 0.16406 0.8125 0.45703 1.1055s0.69141 0.45703 1.1055 0.45703h5.7812l1.7969-3.125h-6.0156v-6.6562c0-0.41406-0.16406-0.8125-0.45703-1.1055s-0.69141-0.45703-1.1055-0.45703h-2.875c-1.2852-0.011719-2.4805-0.67188-3.1758-1.7539-0.69531-1.082-0.80078-2.4414-0.27734-3.6172 0.67188-1.3867 2.0898-2.2539 3.6289-2.2227h2.6992c0.86328-0.003906 1.5586-0.69922 1.5625-1.5625v-6.6562h7.7969c0.41406 0 0.8125-0.16406 1.1055-0.45703 0.29297-0.29297 0.45703-0.69141 0.45703-1.1055v-4c0.003906-1.2148 0.58984-2.3516 1.5703-3.0664 0.98047-0.71484 2.2422-0.91797 3.3984-0.55078 1.6016 0.55078 2.6602 2.0742 2.625 3.7656v3.4297c0 1.2812 0.70312 1.9844 1.5625 1.9844h7.8125v5.0938h-1.2656c-3.8203 0-6.9219 3.1016-6.9219 6.9219-0.003906 0.38672 0.035156 0.77734 0.10938 1.1562 0.13672 0.007813 0.27344 0.023437 0.40625 0.046875 1.1523 0.085938 2.2773 0.41016 3.2969 0.95312 0.52734 0.57422 1.1523 1.0508 1.8438 1.4062v0.015625c0.90625 0.93359 1.5508 2.0859 1.875 3.3438l0.28125 1.4453c0.20312 1.0234 0.21094 2.0781 0.023437 3.1055-0.12891 0.71875-0.26562 1.4492-0.30469 1.6367-0.089844 0.4375-0.25391 0.85156-0.48438 1.2344l-0.46875 0.79688h3.8125l-0.0625-0.10938-0.40625-0.6875c-0.23047-0.38672-0.39453-0.80859-0.48828-1.25-0.76172-3.8047-0.30859-6.7852 1.3477-8.9062-0.046875-0.054687-0.10547-0.097656-0.17188-0.125-0.074219-0.0625-0.16016-0.10938-0.25-0.14062-0.066406-0.035156-0.14062-0.058594-0.21875-0.0625-0.125-0.042969-0.25781-0.066406-0.39062-0.0625h-2.4219c-0.71875 0-1.4258-0.20703-2.0312-0.59375-0.046875-0.046875-0.67188-0.54688-0.6875-0.54688-0.77734-0.79688-1.1641-1.8945-1.0625-3 0.25-2.0039 1.9727-3.4961 3.9922-3.4531h2.2422c0.19922-0.003906 0.39453-0.042969 0.57812-0.125 0.59375-0.22656 0.98828-0.80078 0.98438-1.4375v-6.6562h7.8125c0.86328-0.003906 1.5586-0.69922 1.5625-1.5625v-4c-0.003906-1.0898 0.46484-2.1289 1.2852-2.8516 0.81641-0.72266 1.9062-1.0547 2.9883-0.91797 1.9375 0.30078 3.3594 1.9883 3.3203 3.9531v3.8164c0 0.41406 0.16406 0.8125 0.45703 1.1055 0.29297 0.29297 0.69141 0.45703 1.1055 0.45703h7.7969v5.0938h-0.54297c-3.6367-0.0625-6.7383 2.6172-7.2031 6.2227-0.19531 1.9453 0.44141 3.8828 1.7539 5.3359s3.1758 2.2812 5.1328 2.2852h0.85938v5.0938h-8.5781l1.7969 3.125h8.3438c0.41406 0 0.8125-0.16406 1.1055-0.45703s0.45703-0.69141 0.45703-1.1055v-8.2188c0-0.41406-0.16406-0.8125-0.45703-1.1055s-0.69141-0.45703-1.1055-0.45703h-2.1992c-2 0.042969-3.7188-1.418-4-3.3984-0.10938-1.0703 0.23828-2.1367 0.95703-2.9375 0.71875-0.80078 1.7461-1.2578 2.8203-1.2578h2.4219c0.41406 0 0.8125-0.16406 1.1055-0.45703s0.45703-0.69141 0.45703-1.1055v-8.2188c0-0.41406-0.16406-0.8125-0.45703-1.1055s-0.69141-0.45703-1.1055-0.45703z"/>
 <path d="m75.859 52.797-1.6562 6.9219-4.5-7.875-1.7812-3.125-4.0781-7.125c-0.17969-0.32031-0.46875-0.5625-0.8125-0.6875-0.53125-0.20312-5.2656-1.8281-8.1562 0.64062-1.6875 1.4531-2.2812 3.875-1.7344 7.1719 0.03125 0.20312 0.0625 0.42188 0.10938 0.625 0.042969 0.17578 0.11328 0.34375 0.20312 0.5l1.1875 2 4.1094 6.9375c-0.84375 3.3906-3.9219 18.312 5.625 24.281v4.7344h3.125v-5.6406c0-0.58203-0.31641-1.1133-0.82812-1.3906-9.4062-4.9844-4.7812-21.625-4.7344-21.797 0.12109-0.41406 0.066406-0.86328-0.15625-1.2344l-5.5156-9.25c-0.29688-1.6406-0.39062-3.6719 0.64062-4.5625 1.0938-0.9375 3.3281-0.57812 4.5312-0.25l12.016 21.031c0.3125 0.55859 0.94531 0.86719 1.5781 0.76562 0.63672-0.078125 1.1562-0.54688 1.2969-1.1719l2.5625-10.781-3.0312-0.73438z"/>
 <path d="m46.359 43.156c-0.29688-0.61719-0.71875-1.1641-1.2344-1.6094-0.60547-0.51172-1.3125-0.88281-2.0781-1.0938-0.15625-0.046875-0.32812-0.078125-0.48438-0.10938-1.8828-0.28906-3.8086-0.097656-5.5938 0.5625-0.34375 0.125-0.63281 0.36719-0.8125 0.6875l-10.359 18.125-1.6562-6.9219v-0.015625l-3.0312 0.73438 2.5625 10.781c0.14062 0.625 0.66016 1.0938 1.2969 1.1719 0.63281 0.10156 1.2656-0.20703 1.5781-0.76562l12.016-21.031c1.2031-0.32812 3.4375-0.6875 4.5312 0.25 1.0312 0.89062 0.9375 2.9219 0.64062 4.5625l-5.5156 9.25c-0.22266 0.37109-0.27734 0.82031-0.15625 1.2344 0.046875 0.17188 4.6719 16.812-4.7344 21.797-0.51172 0.27734-0.82812 0.80859-0.82812 1.3906v5.6406h3.125v-4.7344c9.5469-5.9688 6.4688-20.891 5.625-24.281l5.2969-8.9375c0.089844-0.15625 0.16016-0.32422 0.20312-0.5 0.046875-0.20312 0.078125-0.42188 0.10938-0.625 0.39453-1.8047 0.25-3.6836-0.42188-5.4062z"/>
 <path d="m93.512 54.48c-1.3125-5.0547-4.5117-9.418-8.9453-12.184l-1.5547 2.7109h0.003906c3.6641 2.3555 6.3242 5.9922 7.457 10.199 0.15625 0.74609 0.19531 1.5156 0.11719 2.2734l-2.4492 28.902 3.1133 0.26563 2.4492-28.902c0.10938-1.0938 0.046875-2.1953-0.19141-3.2656z"/>
<text x="0.0" y="117.5" font-size="5.0" font-weight="bold" font-family="Arbeit Regular, Helvetica, Arial-Unicode, Arial, Sans-serif" fill="#000000">Created by Darwin Mulya</text><text x="0.0" y="122.5" font-size="5.0" font-weight="bold" font-family="Arbeit Regular, Helvetica, Arial-Unicode, Arial, Sans-serif" fill="#000000">from Noun Project</text></svg>