<svg xmlns="http://www.w3.org/2000/svg" version="1.1" viewBox="-5.0 -10.0 110.0 135.0">
 <path d="m39.465 69.398c-2.2227-1.793-3.75-4.3086-4.3203-7.1094l-2.043 7.6445c0.625-0.34766 1.3281-0.53125 2.0469-0.53125zm-14.18-50.715c3.1484 0.69531 5.2695 3.6484 4.918 6.8516-0.34766 3.207-3.0547 5.6328-6.2773 5.6328-3.2266 0-5.9336-2.4258-6.2812-5.6328-0.35156-3.2031 1.7695-6.1562 4.918-6.8516v-3.8008c-0.003906-0.45703 0.22266-0.88672 0.60547-1.1406l1.4844-0.98828c-1.2461-0.77734-1.832-2.2812-1.4375-3.6992 0.39844-1.4141 1.6797-2.3984 3.1484-2.4141l33.82-0.53516c0.30469-0.007813 0.60547 0.023437 0.90234 0.097656 0.29297 0.082031 0.57422 0.19922 0.83984 0.35547l29.684 17.578c1.2773 0.75391 1.8984 2.2617 1.5234 3.6914-0.375 1.4336-1.6562 2.4414-3.1406 2.4727l-12.609 0.28125 0.375 16.465h0.003907c0.003906 0.078125 0.003906 0.16016 0 0.24219-0.011719 0.11719-0.035157 0.23438-0.074219 0.34766h13.055c2.3281 0.003906 4.2148 1.8906 4.2188 4.2188v0.86719c-0.003907 1.8555-1.2188 3.4922-2.9922 4.0352-0.65625 0.95703-1.0234 2.0859-1.0508 3.25 0.039062 1.082 0.40234 2.125 1.043 3 1.7812 0.53906 2.9961 2.1758 3 4.0352v0.87109c0 2.3281-1.8867 4.2148-4.2148 4.2188h-4.3203c0.33594 0.26953 0.65625 0.5625 0.96484 0.86719 3.4961 3.5 4.543 8.7656 2.6523 13.34-1.8945 4.5703-6.3555 7.5547-11.305 7.5586h-43.594c-2.3281 0-4.2148-1.8867-4.2188-4.2148v-0.87109c0.003907-1.8555 1.2188-3.4922 2.9922-4.0352 0.65625-0.95703 1.0234-2.0859 1.0508-3.2461-0.039062-1.082-0.40234-2.1289-1.043-3-1.1133-0.33984-2.0352-1.1172-2.5547-2.1523l-2.2617 8.4414c-0.83984 3.1328-2.8945 5.8047-5.7109 7.4219l-0.082032 0.042968c-4.2891 2.4258-9.6172 2.0469-13.516-0.96875-3.9023-3.0156-5.6133-8.0742-4.3438-12.836l11.281-42.109c0.60938-2.2422 2.9141-3.5781 5.1602-2.9805l0.76953 0.20703c0.054687 0.011719 0.10938 0.027344 0.16016 0.042969 1.043 0.30469 1.9297 0.99609 2.4727 1.9375 0.015625 0.03125 0.035157 0.0625 0.050781 0.09375h-0.003906c0.31641 0.57812 0.49219 1.2188 0.51562 1.8711 0.75391 0.88281 1.75 1.5273 2.8633 1.8555 1.0547 0.24609 2.1602 0.16406 3.1719-0.23047 0.29297-0.47266 0.67969-0.88281 1.1367-1.207-1.5391-0.65625-3.0586-1.332-4.5547-2.0352-0.078125-0.027343-0.15234-0.066406-0.22266-0.10938-0.30859-0.18359-0.53125-0.48438-0.61719-0.83594-0.089844-0.35156-0.03125-0.72266 0.15625-1.0312l8.5156-14.113-9.0859-5.5195-1.9375 1.2891v3.0742zm1.1797 3.6289h0.003906c-1.2148-1.2148-3.1211-1.4023-4.5469-0.44922-1.4297 0.95312-1.9844 2.7852-1.3281 4.3711s2.3438 2.4883 4.0273 2.1523c1.6875-0.33594 2.8984-1.8125 2.8984-3.5312 0-0.95312-0.37891-1.8672-1.0508-2.543zm1.3086-10.832h0.003906c0.078125 0.039062 0.15234 0.082031 0.22266 0.13672l10.781 6.5508c0.03125 0.015625 0.0625 0.03125 0.09375 0.050781s0.066406 0.039062 0.10156 0.0625l16.422 9.9805c0.050781 0.03125 0.10156 0.054687 0.16016 0.066406 0.054687 0.015625 0.11328 0.023437 0.17188 0.019531l34.207-0.76172c0.26562 0 0.5-0.18359 0.57031-0.44141 0.066407-0.26172-0.050781-0.53516-0.28516-0.66406l-29.688-17.574c-0.09375-0.058594-0.20312-0.089844-0.3125-0.085938l-33.816 0.53516v0.003906c-0.26562 0-0.5 0.17969-0.5625 0.44141-0.035156 0.125-0.03125 0.25781 0.015625 0.37891 0.046875 0.12109 0.13281 0.21875 0.24609 0.28516l1.6719 1.0156zm10.859 9.7695-7.7266 12.809c6.5977 3.0156 13.43 5.4961 20.43 7.4102 7.75 2.1016 15.676 3.5156 23.68 4.2305l-0.34375-15.055-18.887 0.42188v-0.003906c-0.62891 0.023438-1.25-0.14453-1.7852-0.48047l-15.363-9.332zm29.398 26.387h0.003906c-5.875-0.80469-11.691-1.9922-17.414-3.5508-3.4922-0.95313-6.875-2.0195-10.152-3.1992 0.10547 0.57812 0.085938 1.1719-0.054688 1.7422-0.011718 0.050782-0.023437 0.10547-0.042968 0.15625l-2.4219 9.0352c0.17578-0.19922 0.35938-0.39453 0.54688-0.58203h0.003906c2.2891-2.3008 5.4023-3.5938 8.6484-3.5938zm-49.145 30.758 0.91797-3.4219v-0.003906c0.11328-0.40625-0.12891-0.82812-0.53906-0.9375-0.40625-0.10938-0.82812 0.12891-0.9375 0.53906l-0.91797 3.4297c-0.054687 0.19531-0.03125 0.40625 0.070313 0.58594 0.10156 0.17578 0.26953 0.30859 0.46875 0.35937 0.19922 0.054688 0.40625 0.023438 0.58594-0.078124 0.17578-0.10547 0.30078-0.27344 0.35156-0.47266zm1.9805-7.3828 4.207-15.711c0.10938-0.41016-0.13281-0.82812-0.53906-0.9375-0.41016-0.10938-0.82812 0.13281-0.9375 0.54297l-4.2109 15.707c-0.050781 0.19531-0.023438 0.40625 0.078125 0.58203 0.097656 0.17578 0.26562 0.30469 0.46094 0.35938 0.41016 0.10937 0.83203-0.13281 0.94141-0.53906zm10.031-28.816c-0.94922 0.12891-1.9141 0.074219-2.8438-0.16406-1.0273-0.26953-1.9883-0.74609-2.8281-1.3984l-10.785 40.254c-0.41016 1.5664 0.51562 3.1719 2.0781 3.5977 0.75391 0.20312 1.5547 0.09375 2.2266-0.29688l0.0625-0.035156h0.003906c0.64453-0.39062 1.1172-1.0156 1.3125-1.7461zm-4.4219 41.922 0.003907-0.003907c-0.65625 2.4414-2.2539 4.5156-4.4453 5.7734l-0.0625 0.039062c-3.3359 1.8906-7.4805 1.5938-10.516-0.75391-3.0312-2.3477-4.3633-6.2852-3.3711-9.9883l11.281-42.109c0.21875-0.79688 1.0352-1.2656 1.832-1.0547l0.83984 0.22656c0.38672 0.10156 0.71094 0.35547 0.90625 0.69922l0.03125 0.050782v-0.003906c0.17578 0.33594 0.21484 0.72266 0.11719 1.0859l-11.281 42.105c-0.59766 2.2109 0.19922 4.5664 2.0195 5.957 1.8164 1.3945 4.2969 1.5547 6.2773 0.40234 0.027344-0.015625 0.054687-0.035157 0.082031-0.050781 1.2617-0.75 2.1797-1.9648 2.5625-3.3789l11.281-42.113c0.21875-0.79297 1.0352-1.2656 1.832-1.0547 0.27734 0.070313 0.5625 0.16016 0.83984 0.22656 0.79297 0.21484 1.2656 1.0352 1.0547 1.832l-11.281 42.109zm10.586 0.47656 41.676-0.003906c1.6016-0.03125 2.8867-1.3398 2.8867-2.9414 0-1.6016-1.2852-2.9102-2.8867-2.9414h-41.637c0.36719 0.88672 0.56641 1.8359 0.57813 2.7969 0.003906 1.0586-0.20703 2.1094-0.61719 3.0859zm43.52-18.195 2.418-1.1367v-8.3203h-2.418zm4.2695 0.98828-4.25 2.0117h10.141c0.82422-0.003907 1.4883-0.66797 1.4922-1.4922v-0.86719c-0.003906-0.82422-0.66797-1.4883-1.4922-1.4922h-5.0195v0.57422c-0.003906 0.5625-0.34766 1.0664-0.87109 1.2695zm-0.5-13.176h-37.199v0.003906c-3.1016 0.042968-5.5898 2.5664-5.5898 5.6641 0 3.1016 2.4883 5.625 5.5898 5.668h30.707v3c-0.003906 0.30859 0.10547 0.60938 0.29688 0.85156h-31.008c-5.2578 0-9.5195-4.2617-9.5195-9.5195 0-5.2578 4.2617-9.5195 9.5195-9.5195h43.594c0.82422 0.003906 1.4883 0.67188 1.4922 1.4922v0.87109c-0.003906 0.82031-0.66797 1.4883-1.4922 1.4922h-6.3867zm1.3672 2.7266v5.8828h3.0625c-0.37109-0.88672-0.56641-1.8359-0.58203-2.793-0.003907-1.0625 0.20703-2.1094 0.61719-3.0859zm-7.8633 5.8828v-5.8789h-30.707c-1.6016 0.03125-2.8867 1.3398-2.8867 2.9414 0 1.6055 1.2852 2.9102 2.8867 2.9414zm-4.9492 18.062h-3.543c-0.41406 0.015626-0.73828 0.35156-0.73828 0.76563 0 0.41406 0.32422 0.75 0.73828 0.76562h3.543c0.20703 0.007813 0.41016-0.070312 0.5625-0.21484 0.14844-0.14453 0.23438-0.34375 0.23438-0.55078 0-0.20703-0.085937-0.40625-0.23438-0.55078-0.15234-0.14453-0.35547-0.22266-0.5625-0.21484zm-7.6445 0h-16.262c-0.41406 0.015626-0.73828 0.35156-0.73828 0.76563 0 0.41406 0.32422 0.75 0.73828 0.76562h16.262c0.21094 0.007813 0.41016-0.070312 0.5625-0.21484 0.14844-0.14453 0.23438-0.34375 0.23438-0.55078 0-0.20703-0.085938-0.40625-0.23438-0.55078-0.15234-0.14453-0.35156-0.22266-0.5625-0.21484zm13.473-8.7539h-43.59c-0.82422 0.003906-1.4883 0.66797-1.4922 1.4922v0.86719c0.003906 0.82422 0.66797 1.4922 1.4922 1.4961h43.594c3.0977 0.039063 5.5898 2.5625 5.5898 5.6641 0 3.1016-2.4922 5.625-5.5898 5.6641h-43.594c-0.82422 0.007812-1.4883 0.67188-1.4922 1.4922v0.87109c0.003906 0.82422 0.66797 1.4883 1.4922 1.4922h43.594c5.2578 0 9.5195-4.2617 9.5195-9.5195 0-5.2578-4.2617-9.5195-9.5195-9.5195zm-30.055-11.48h3.5469c0.41016-0.011719 0.73828-0.35156 0.73828-0.76563 0-0.41406-0.32812-0.75-0.73828-0.76562h-3.5469c-0.41406 0.015624-0.73828 0.35156-0.73828 0.76562 0 0.41406 0.32422 0.75391 0.73828 0.76563zm7.6445 0h16.262c0.21094 0.007812 0.41016-0.066407 0.5625-0.21094 0.14844-0.14844 0.23437-0.34766 0.23437-0.55469 0-0.20703-0.085937-0.40625-0.23437-0.55078-0.15234-0.14453-0.35156-0.22266-0.5625-0.21484h-16.262c-0.41406 0.015624-0.73828 0.35156-0.73828 0.76562 0 0.41406 0.32422 0.75391 0.73828 0.76563z" fill-rule="evenodd"/>
<text x="0.0" y="117.5" font-size="5.0" font-weight="bold" font-family="Arbeit Regular, Helvetica, Arial-Unicode, Arial, Sans-serif" fill="#000000">Created by muhadi</text><text x="0.0" y="122.5" font-size="5.0" font-weight="bold" font-family="Arbeit Regular, Helvetica, Arial-Unicode, Arial, Sans-serif" fill="#000000">from Noun Project</text></svg>